<?xml version="1.0" encoding="UTF-8"?>
<svg width="15px" height="15px" viewBox="0 0 15 15" version="1.1" xmlns="http://www.w3.org/2000/svg" xmlns:xlink="http://www.w3.org/1999/xlink">
    <!-- Generator: Sketch 50.2 (55047) - http://www.bohemiancoding.com/sketch -->
    <title>TOP/gallery-icon</title>
    <desc>Created with Sketch.</desc>
    <defs></defs>
    <g id="TOP/gallery-icon" stroke="none" stroke-width="1" fill="none" fill-rule="evenodd">
        <g id="002-frame-landscape-copy" transform="translate(0.000000, 2.000000)" fill="#4A4A4A" fill-rule="nonzero">
            <path d="M14.7427215,0.0157120253 L0.237341772,0.0157120253 C0.106281646,0.0157120253 0,0.121946203 0,0.253053797 L0,11.5940981 C0,11.7252057 0.106281646,11.8314399 0.237341772,11.8314399 L14.7427215,11.8314399 C14.8738766,11.8314399 14.9800633,11.7252057 14.9800633,11.5940981 L14.9800633,0.253053797 C14.9800633,0.121946203 14.8738766,0.0157120253 14.7427215,0.0157120253 Z M13.5560127,9.93920886 L10.2918038,6.55879747 C10.2557278,6.52153481 10.1967247,6.51911392 10.1578006,6.55338608 L7.89379747,8.54606013 L5.00003165,4.98303797 C4.98123418,4.95977848 4.95375,4.94648734 4.92265823,4.9471519 C4.8927057,4.94776899 4.86474684,4.9621519 4.84685127,4.98617089 L1.42405063,9.57897152 L1.42405063,1.43976266 L13.5560127,1.43976266 L13.5560127,9.93920886 Z" id="Shape"></path>
            <path d="M9.97115506,4.86811709 C10.6137816,4.86811709 11.1355063,4.34681962 11.1355063,3.70367089 C11.1355063,3.06071203 10.6137816,2.53912975 9.97115506,2.53912975 C9.32800633,2.53912975 8.80685127,3.06071203 8.80685127,3.70367089 C8.80685127,4.34677215 9.3280538,4.86811709 9.97115506,4.86811709 Z" id="Shape"></path>
        </g>
        <rect id="Rectangle-16" x="0" y="0" width="15" height="15"></rect>
    </g>
</svg>