<?xml version="1.0" encoding="UTF-8"?>
<svg width="15px" height="15px" viewBox="0 0 15 15" version="1.1" xmlns="http://www.w3.org/2000/svg" xmlns:xlink="http://www.w3.org/1999/xlink">
    <!-- Generator: Sketch 50.2 (55047) - http://www.bohemiancoding.com/sketch -->
    <title>TOP/gallery-icon-selected</title>
    <desc>Created with Sketch.</desc>
    <defs></defs>
    <g id="TOP/gallery-icon-selected" stroke="none" stroke-width="1" fill="none" fill-rule="evenodd">
        <g id="002-frame-landscape-copy">
            <rect id="Rectangle-16" x="0" y="0" width="15" height="15"></rect>
            <path d="M14.7427215,2.01571203 L0.237341772,2.01571203 C0.106281646,2.01571203 0,2.1219462 0,2.2530538 L0,13.5940981 C0,13.7252057 0.106281646,13.8314399 0.237341772,13.8314399 L14.7427215,13.8314399 C14.8738766,13.8314399 14.9800633,13.7252057 14.9800633,13.5940981 L14.9800633,2.2530538 C14.9800633,2.1219462 14.8738766,2.01571203 14.7427215,2.01571203 Z M13.5560127,11.9392089 L10.2918038,8.55879747 C10.2557278,8.52153481 10.1967247,8.51911392 10.1578006,8.55338608 L7.89379747,10.5460601 L5.00003165,6.98303797 C4.98123418,6.95977848 4.95375,6.94648734 4.92265823,6.9471519 C4.8927057,6.94776899 4.86474684,6.9621519 4.84685127,6.98617089 L1.42405063,11.5789715 L1.42405063,3.43976266 L13.5560127,3.43976266 L13.5560127,11.9392089 Z" id="Shape" fill="#96281B" fill-rule="nonzero"></path>
            <path d="M9.97115506,6.86811709 C10.6137816,6.86811709 11.1355063,6.34681962 11.1355063,5.70367089 C11.1355063,5.06071203 10.6137816,4.53912975 9.97115506,4.53912975 C9.32800633,4.53912975 8.80685127,5.06071203 8.80685127,5.70367089 C8.80685127,6.34677215 9.3280538,6.86811709 9.97115506,6.86811709 Z" id="Shape" fill="#96281B" fill-rule="nonzero"></path>
        </g>
    </g>
</svg>