<?xml version="1.0" encoding="UTF-8"?>
<svg width="15px" height="15px" viewBox="0 0 15 15" version="1.1" xmlns="http://www.w3.org/2000/svg" xmlns:xlink="http://www.w3.org/1999/xlink">
    <!-- Generator: Sketch 50.2 (55047) - http://www.bohemiancoding.com/sketch -->
    <title>TOP/library-icon</title>
    <desc>Created with Sketch.</desc>
    <defs></defs>
    <g id="TOP/library-icon" stroke="none" stroke-width="1" fill="none" fill-rule="evenodd">
        <rect id="Rectangle-2" x="0" y="0" width="15" height="15"></rect>
        <g id="006-open-book-copy-3" transform="translate(0.000000, 2.000000)" fill="#4A4A4A" fill-rule="nonzero">
            <path d="M2.29454545,0.00247474747 C2.29414141,0.00247474747 2.29368687,0.00247474747 2.29328283,0.00247474747 C2.15141414,0.00247474747 2.0179798,0.0577777778 1.91722222,0.158282828 C1.81535354,0.25989899 1.75924242,0.39520202 1.75924242,0.539242424 L1.75924242,8.5879798 C1.75924242,8.88313131 2.00030303,9.12383838 2.29666667,9.12459596 C3.54606061,9.12757576 5.63929293,9.3879798 7.08333333,10.8991414 L7.08333333,2.47590909 C7.08333333,2.37585859 7.05777778,2.28186869 7.00954545,2.20409091 C5.82434343,0.29540404 3.54676768,0.0054040404 2.29454545,0.00247474747 Z" id="Shape"></path>
            <path d="M13.2407576,8.5879798 L13.2407576,0.539191919 C13.2407576,0.395151515 13.1846465,0.259848485 13.0827778,0.158232323 C12.9820202,0.0577272727 12.8484848,0.00242424242 12.7067677,0.00242424242 C12.7063131,0.00242424242 12.7058586,0.00242424242 12.7054545,0.00242424242 C11.4532828,0.0054040404 9.17570707,0.29540404 7.99045455,2.20409091 C7.94222222,2.28186869 7.91671717,2.37585859 7.91671717,2.47590909 L7.91671717,10.8990909 C9.36075758,9.38792929 11.4539899,9.12752525 12.7033838,9.12454545 C12.999697,9.12378788 13.2407576,8.88308081 13.2407576,8.5879798 Z" id="Shape"></path>
            <path d="M14.4632828,1.85863636 L14.0740909,1.85863636 L14.0740909,8.5879798 C14.0740909,9.34156566 13.460101,9.95606061 12.7053535,9.95792929 C11.6456061,9.96045455 9.89823232,10.1676768 8.66070707,11.3389394 C10.8010101,10.814899 13.0572727,11.1555556 14.3431313,11.4485859 C14.5036869,11.4851515 14.669596,11.4473737 14.7982323,11.3448485 C14.9264141,11.2425758 14.9999495,11.089697 14.9999495,10.9256061 L14.9999495,2.39530303 C15,2.09939394 14.7591919,1.85863636 14.4632828,1.85863636 Z" id="Shape"></path>
            <path d="M0.925858586,8.5879798 L0.925858586,1.85863636 L0.536666667,1.85863636 C0.240808081,1.85863636 0,2.09939394 0,2.39530303 L0,10.9254545 C0,11.089596 0.0735353535,11.2424242 0.201717172,11.344697 C0.330252525,11.4471717 0.496010101,11.485101 0.656818182,11.4484343 C1.94267677,11.1553535 4.1989899,10.8147475 6.33919192,11.3387879 C5.10171717,10.1675758 3.35434343,9.96040404 2.29459596,9.95787879 C1.53989899,9.95606061 0.925858586,9.34156566 0.925858586,8.5879798 Z" id="Shape"></path>
        </g>
    </g>
</svg>