<?xml version="1.0" encoding="UTF-8"?>
<svg width="15px" height="15px" viewBox="0 0 15 15" version="1.1" xmlns="http://www.w3.org/2000/svg" xmlns:xlink="http://www.w3.org/1999/xlink">
    <!-- Generator: Sketch 50.2 (55047) - http://www.bohemiancoding.com/sketch -->
    <title>TOP/mail-icon-selected</title>
    <desc>Created with Sketch.</desc>
    <defs></defs>
    <g id="TOP/mail-icon-selected" stroke="none" stroke-width="1" fill="none" fill-rule="evenodd">
        <g id="005-mail-black-envelope-symbol-copy" transform="translate(0.000000, 2.000000)" fill="#96281B" fill-rule="nonzero">
            <path d="M15,8.43745363 C15,8.73340652 14.9075042,9.00776879 14.7593315,9.24916085 L10.0232167,4.4800262 L14.7079827,0.791146045 C14.890223,1.05142989 15,1.35717647 15,1.68757419 L15,8.43745363 Z M7.50001546,5.34596038 L14.0187156,0.212623108 C13.7512134,0.0808257169 13.4499836,0 13.1250425,0 L1.87498841,0 C1.54964541,0 1.24832289,0.0808257169 0.981902719,0.212623108 L7.50001546,5.34596038 Z M9.31737945,5.03540043 L7.8084792,6.22438707 C7.72021863,6.29358279 7.61031799,6.32813891 7.50001546,6.32813891 C7.3896511,6.32813891 7.27975046,6.29358279 7.19148989,6.22438707 L5.68224958,5.03534478 L0.886222695,9.86543955 C1.17369557,10.0277587 1.51060054,10.125 1.87495749,10.125 L13.1250425,10.125 C13.4893376,10.125 13.8263972,10.0277587 14.1137773,9.86543955 L9.31737945,5.03540043 Z M0.292079116,0.791118222 C0.109869727,1.05140207 0,1.35714865 0,1.68757419 L0,8.43748145 C0,8.73343434 0.0920630406,9.00779661 0.24079215,9.24918867 L4.97635049,4.47921934 L0.292079116,0.791118222 Z" id="Shape"></path>
        </g>
    </g>
</svg>