<?xml version="1.0" encoding="UTF-8"?>
<svg width="17px" height="18px" viewBox="0 0 17 18" version="1.1" xmlns="http://www.w3.org/2000/svg" xmlns:xlink="http://www.w3.org/1999/xlink">
    <!-- Generator: Sketch 48.2 (47327) - http://www.bohemiancoding.com/sketch -->
    <title>Date</title>
    <desc>Created with Sketch.</desc>
    <defs></defs>
    <g id="Page-1" stroke="none" stroke-width="1" fill="none" fill-rule="evenodd">
        <g id="Date" fill="#4A4A4A">
            <path d="M1.28571429,16.7142857 L15.4285714,16.7142857 L15.4285714,6.42857143 L1.28571429,6.42857143 L1.28571429,16.7142857 Z M5.14285714,4.5 L5.14285714,1.60714286 C5.14285714,1.51339239 5.11272352,1.43638423 5.05245536,1.37611607 C4.9921872,1.31584791 4.91517904,1.28571429 4.82142857,1.28571429 L4.17857143,1.28571429 C4.08482096,1.28571429 4.0078128,1.31584791 3.94754464,1.37611607 C3.88727648,1.43638423 3.85714286,1.51339239 3.85714286,1.60714286 L3.85714286,4.5 C3.85714286,4.59375047 3.88727648,4.67075863 3.94754464,4.73102679 C4.0078128,4.79129494 4.08482096,4.82142857 4.17857143,4.82142857 L4.82142857,4.82142857 C4.91517904,4.82142857 4.9921872,4.79129494 5.05245536,4.73102679 C5.11272352,4.67075863 5.14285714,4.59375047 5.14285714,4.5 Z M12.8571429,4.5 L12.8571429,1.60714286 C12.8571429,1.51339239 12.8270092,1.43638423 12.7667411,1.37611607 C12.7064729,1.31584791 12.6294648,1.28571429 12.5357143,1.28571429 L11.8928571,1.28571429 C11.7991067,1.28571429 11.7220985,1.31584791 11.6618304,1.37611607 C11.6015622,1.43638423 11.5714286,1.51339239 11.5714286,1.60714286 L11.5714286,4.5 C11.5714286,4.59375047 11.6015622,4.67075863 11.6618304,4.73102679 C11.7220985,4.79129494 11.7991067,4.82142857 11.8928571,4.82142857 L12.5357143,4.82142857 C12.6294648,4.82142857 12.7064729,4.79129494 12.7667411,4.73102679 C12.8270092,4.67075863 12.8571429,4.59375047 12.8571429,4.5 Z M16.7142857,3.85714286 L16.7142857,16.7142857 C16.7142857,17.0625017 16.5870548,17.363838 16.3325893,17.6183036 C16.0781237,17.8727691 15.7767875,18 15.4285714,18 L1.28571429,18 C0.937498259,18 0.636161987,17.8727691 0.381696429,17.6183036 C0.127230871,17.363838 0,17.0625017 0,16.7142857 L0,3.85714286 C0,3.50892683 0.127230871,3.20759056 0.381696429,2.953125 C0.636161987,2.69865944 0.937498259,2.57142857 1.28571429,2.57142857 L2.57142857,2.57142857 L2.57142857,1.60714286 C2.57142857,1.16517636 2.72879307,0.786831931 3.04352679,0.472098214 C3.3582605,0.157364498 3.73660493,0 4.17857143,0 L4.82142857,0 C5.26339507,0 5.6417395,0.157364498 5.95647321,0.472098214 C6.27120693,0.786831931 6.42857143,1.16517636 6.42857143,1.60714286 L6.42857143,2.57142857 L10.2857143,2.57142857 L10.2857143,1.60714286 C10.2857143,1.16517636 10.4430788,0.786831931 10.7578125,0.472098214 C11.0725462,0.157364498 11.4508906,0 11.8928571,0 L12.5357143,0 C12.9776808,0 13.3560252,0.157364498 13.6707589,0.472098214 C13.9854926,0.786831931 14.1428571,1.16517636 14.1428571,1.60714286 L14.1428571,2.57142857 L15.4285714,2.57142857 C15.7767875,2.57142857 16.0781237,2.69865944 16.3325893,2.953125 C16.5870548,3.20759056 16.7142857,3.50892683 16.7142857,3.85714286 Z" id="" fill-rule="evenodd"></path>
            <text id="1" font-family="OpenSans-SemiBold, Open Sans" font-size="10" font-weight="500">
                <tspan x="2.29199219" y="15">10</tspan>
            </text>
        </g>
    </g>
</svg>